<svg width="21" height="13" viewBox="0 0 21 13" fill="none" xmlns="http://www.w3.org/2000/svg">
<path d="M0 4C0 2.11438 0 1.17157 0.585786 0.585786C1.17157 0 2.11438 0 4 0H17C18.8856 0 19.8284 0 20.4142 0.585786C21 1.17157 21 2.11438 21 4V9C21 10.8856 21 11.8284 20.4142 12.4142C19.8284 13 18.8856 13 17 13H4C2.11438 13 1.17157 13 0.585786 12.4142C0 11.8284 0 10.8856 0 9V4Z" fill="white"/>
<mask id="path-2-inside-1_9_9" fill="white">
<path d="M11.5698 2.27273L10.1209 11H8.14364L5.75728 6.41477H5.70614L4.9391 11H2.56978L4.01864 2.27273H6.03001L8.38228 6.84091H8.45046L9.20046 2.27273H11.5698ZM20.2843 5.54545H17.915C17.932 5.34375 17.9206 5.16193 17.8809 5C17.8411 4.83807 17.7729 4.69886 17.6763 4.58239C17.5797 4.46307 17.4533 4.37216 17.2971 4.30966C17.1408 4.24716 16.9547 4.21591 16.7388 4.21591C16.324 4.21591 15.9533 4.3196 15.6266 4.52699C15.2999 4.73153 15.0286 5.02557 14.8127 5.40909C14.5968 5.78977 14.4434 6.24432 14.3525 6.77273C14.2729 7.28409 14.2701 7.70881 14.3439 8.04688C14.4206 8.38494 14.5698 8.63778 14.7914 8.8054C15.0158 8.97301 15.307 9.05682 15.665 9.05682C15.9036 9.05682 16.1223 9.02841 16.3212 8.97159C16.5229 8.91477 16.7019 8.83381 16.8581 8.72869C17.0172 8.62074 17.1522 8.4929 17.263 8.34517C17.3766 8.1946 17.4632 8.02841 17.5229 7.84659H19.9093C19.8184 8.21591 19.6564 8.59375 19.4235 8.98011C19.1905 9.36364 18.8894 9.71733 18.5201 10.0412C18.1507 10.3622 17.7161 10.6222 17.2161 10.821C16.7161 11.0199 16.1536 11.1193 15.5286 11.1193C14.7104 11.1193 14.0044 10.9403 13.4107 10.5824C12.8198 10.2244 12.3908 9.7017 12.1238 9.0142C11.8596 8.3267 11.807 7.48864 11.9661 6.5C12.1252 5.54545 12.4391 4.74574 12.9078 4.10085C13.3766 3.45597 13.9462 2.97017 14.6167 2.64347C15.2871 2.31676 16.0002 2.15341 16.7559 2.15341C17.3269 2.15341 17.8382 2.22869 18.29 2.37926C18.7445 2.52983 19.1266 2.75 19.4363 3.03977C19.7488 3.3267 19.9789 3.6804 20.1266 4.10085C20.2743 4.52131 20.3269 5.00284 20.2843 5.54545Z"/>
</mask>
<path d="M11.5698 2.27273L10.1209 11H8.14364L5.75728 6.41477H5.70614L4.9391 11H2.56978L4.01864 2.27273H6.03001L8.38228 6.84091H8.45046L9.20046 2.27273H11.5698ZM20.2843 5.54545H17.915C17.932 5.34375 17.9206 5.16193 17.8809 5C17.8411 4.83807 17.7729 4.69886 17.6763 4.58239C17.5797 4.46307 17.4533 4.37216 17.2971 4.30966C17.1408 4.24716 16.9547 4.21591 16.7388 4.21591C16.324 4.21591 15.9533 4.3196 15.6266 4.52699C15.2999 4.73153 15.0286 5.02557 14.8127 5.40909C14.5968 5.78977 14.4434 6.24432 14.3525 6.77273C14.2729 7.28409 14.2701 7.70881 14.3439 8.04688C14.4206 8.38494 14.5698 8.63778 14.7914 8.8054C15.0158 8.97301 15.307 9.05682 15.665 9.05682C15.9036 9.05682 16.1223 9.02841 16.3212 8.97159C16.5229 8.91477 16.7019 8.83381 16.8581 8.72869C17.0172 8.62074 17.1522 8.4929 17.263 8.34517C17.3766 8.1946 17.4632 8.02841 17.5229 7.84659H19.9093C19.8184 8.21591 19.6564 8.59375 19.4235 8.98011C19.1905 9.36364 18.8894 9.71733 18.5201 10.0412C18.1507 10.3622 17.7161 10.6222 17.2161 10.821C16.7161 11.0199 16.1536 11.1193 15.5286 11.1193C14.7104 11.1193 14.0044 10.9403 13.4107 10.5824C12.8198 10.2244 12.3908 9.7017 12.1238 9.0142C11.8596 8.3267 11.807 7.48864 11.9661 6.5C12.1252 5.54545 12.4391 4.74574 12.9078 4.10085C13.3766 3.45597 13.9462 2.97017 14.6167 2.64347C15.2871 2.31676 16.0002 2.15341 16.7559 2.15341C17.3269 2.15341 17.8382 2.22869 18.29 2.37926C18.7445 2.52983 19.1266 2.75 19.4363 3.03977C19.7488 3.3267 19.9789 3.6804 20.1266 4.10085C20.2743 4.52131 20.3269 5.00284 20.2843 5.54545Z" fill="black"/>
<path d="M11.5698 2.27273L12.5563 2.4365L12.7495 1.27273H11.5698V2.27273ZM10.1209 11V12H10.9686L11.1074 11.1638L10.1209 11ZM8.14364 11L7.25659 11.4617L7.53676 12H8.14364V11ZM5.75728 6.41477L6.64433 5.95311L6.36416 5.41477H5.75728V6.41477ZM5.70614 6.41477V5.41477H4.85953L4.71985 6.24978L5.70614 6.41477ZM4.9391 11V12H5.78571L5.92539 11.165L4.9391 11ZM2.56978 11L1.58328 10.8362L1.39008 12H2.56978V11ZM4.01864 2.27273V1.27273H3.17097L3.03215 2.10895L4.01864 2.27273ZM6.03001 2.27273L6.91906 1.81493L6.63987 1.27273H6.03001V2.27273ZM8.38228 6.84091L7.49322 7.29871L7.77242 7.84091H8.38228V6.84091ZM8.45046 6.84091V7.84091H9.29967L9.43725 7.00292L8.45046 6.84091ZM9.20046 2.27273V1.27273H8.35125L8.21367 2.11072L9.20046 2.27273ZM10.5833 2.10895L9.13442 10.8362L11.1074 11.1638L12.5563 2.4365L10.5833 2.10895ZM10.1209 10H8.14364V12H10.1209V10ZM9.0307 10.5383L6.64433 5.95311L4.87023 6.87644L7.25659 11.4617L9.0307 10.5383ZM5.75728 5.41477H5.70614V7.41477H5.75728V5.41477ZM4.71985 6.24978L3.9528 10.835L5.92539 11.165L6.69244 6.57977L4.71985 6.24978ZM4.9391 10H2.56978V12H4.9391V10ZM3.55628 11.1638L5.00514 2.4365L3.03215 2.10895L1.58328 10.8362L3.55628 11.1638ZM4.01864 3.27273H6.03001V1.27273H4.01864V3.27273ZM5.14095 2.73052L7.49322 7.29871L9.27134 6.38311L6.91906 1.81493L5.14095 2.73052ZM8.38228 7.84091H8.45046V5.84091H8.38228V7.84091ZM9.43725 7.00292L10.1873 2.43474L8.21367 2.11072L7.46367 6.6789L9.43725 7.00292ZM9.20046 3.27273H11.5698V1.27273H9.20046V3.27273ZM20.2843 5.54545V6.54545H21.2088L21.2812 5.62375L20.2843 5.54545ZM17.915 5.54545L16.9185 5.46125L16.8269 6.54545H17.915V5.54545ZM17.8809 5L16.9097 5.23852L16.9097 5.23853L17.8809 5ZM17.6763 4.58239L16.899 5.21163L16.9066 5.22072L17.6763 4.58239ZM15.6266 4.52699L16.1573 5.37459L16.1625 5.37125L15.6266 4.52699ZM14.8127 5.40909L15.6825 5.90243L15.6841 5.89966L14.8127 5.40909ZM14.3525 6.77273L13.3669 6.60317L13.3656 6.61109L13.3643 6.61902L14.3525 6.77273ZM14.3439 8.04688L13.3669 8.26033L13.3687 8.26814L14.3439 8.04688ZM14.7914 8.8054L14.1881 9.60295L14.193 9.60661L14.7914 8.8054ZM16.3212 8.97159L16.0501 8.00904L16.0465 8.01007L16.3212 8.97159ZM16.8581 8.72869L17.4163 9.55842L17.4196 9.55617L16.8581 8.72869ZM17.263 8.34517L16.4648 7.74276L16.463 7.74517L17.263 8.34517ZM17.5229 7.84659V6.84659H16.7986L16.5727 7.53482L17.5229 7.84659ZM19.9093 7.84659L20.8803 8.08561L21.1853 6.84659H19.9093V7.84659ZM19.4235 8.98011L20.2782 9.49926L20.2799 9.49646L19.4235 8.98011ZM18.5201 10.0412L19.1761 10.7959L19.1794 10.7931L18.5201 10.0412ZM17.2161 10.821L16.8465 9.89182L16.8465 9.89182L17.2161 10.821ZM13.4107 10.5824L12.8926 11.4377L12.8944 11.4388L13.4107 10.5824ZM12.1238 9.0142L11.1903 9.37293L11.1916 9.37628L12.1238 9.0142ZM11.9661 6.5L10.9797 6.3356L10.9788 6.34112L11.9661 6.5ZM14.6167 2.64347L15.0547 3.54242L15.0547 3.54242L14.6167 2.64347ZM18.29 2.37926L17.9737 3.32795L17.9755 3.32854L18.29 2.37926ZM19.4363 3.03977L18.753 3.76997L18.7599 3.77637L19.4363 3.03977ZM20.1266 4.10085L21.0701 3.76937L21.0701 3.76937L20.1266 4.10085ZM20.2843 4.54545H17.915V6.54545H20.2843V4.54545ZM18.9114 5.62966C18.9357 5.34209 18.9225 5.04869 18.852 4.76147L16.9097 5.23853C16.9187 5.27518 16.9283 5.34541 16.9185 5.46125L18.9114 5.62966ZM18.852 4.76148C18.7799 4.46793 18.6486 4.18831 18.4461 3.94405L16.9066 5.22072C16.9051 5.21892 16.9038 5.21717 16.9029 5.21571C16.9019 5.21425 16.9016 5.21358 16.9018 5.21401C16.9021 5.21467 16.9056 5.22188 16.9097 5.23852L18.852 4.76148ZM18.4536 3.95319C18.2393 3.68857 17.9677 3.50087 17.6684 3.38118L16.9257 5.23814C16.9345 5.24168 16.9329 5.24212 16.9252 5.2366C16.9172 5.2308 16.9076 5.22216 16.8991 5.21158L18.4536 3.95319ZM17.6684 3.38118C17.3659 3.26015 17.0475 3.21591 16.7388 3.21591V5.21591C16.8619 5.21591 16.9158 5.23417 16.9257 5.23814L17.6684 3.38118ZM16.7388 3.21591C16.1485 3.21591 15.5892 3.36625 15.0907 3.68272L16.1625 5.37125C16.3174 5.27296 16.4996 5.21591 16.7388 5.21591V3.21591ZM15.0959 3.6794C14.6086 3.98452 14.2274 4.41028 13.9413 4.91852L15.6841 5.89966C15.8298 5.64086 15.9912 5.47855 16.1573 5.37457L15.0959 3.6794ZM13.9428 4.91575C13.6588 5.41661 13.4732 5.98571 13.3669 6.60317L15.338 6.94228C15.4136 6.50293 15.5348 6.16294 15.6825 5.90243L13.9428 4.91575ZM13.3643 6.61902C13.2743 7.19779 13.2571 7.75736 13.367 8.26033L15.3209 7.83342C15.283 7.66026 15.2715 7.37039 15.3406 6.92643L13.3643 6.61902ZM13.3687 8.26814C13.4843 8.77744 13.7355 9.26056 14.1881 9.60294L15.3946 8.00786C15.3937 8.00717 15.3867 8.00245 15.3746 7.98198C15.3611 7.95913 15.3386 7.91148 15.3191 7.82561L13.3687 8.26814ZM14.193 9.60661C14.633 9.93525 15.1517 10.0568 15.665 10.0568V8.05682C15.4623 8.05682 15.3986 8.01077 15.3897 8.00418L14.193 9.60661ZM15.665 10.0568C15.9826 10.0568 16.2952 10.019 16.5959 9.93311L16.0465 8.01007C15.9494 8.03779 15.8246 8.05682 15.665 8.05682V10.0568ZM16.5923 9.93413C16.8848 9.85176 17.1627 9.72902 17.4163 9.55842L16.3 7.89897C16.2411 7.93859 16.1611 7.97778 16.0501 8.00905L16.5923 9.93413ZM17.4196 9.55617C17.6665 9.38869 17.8831 9.185 18.063 8.94517L16.463 7.74517C16.4212 7.8008 16.368 7.85279 16.2966 7.90122L17.4196 9.55617ZM18.0612 8.94758C18.2421 8.70787 18.3796 8.44323 18.4731 8.15836L16.5727 7.53482C16.5469 7.61359 16.5111 7.68133 16.4648 7.74276L18.0612 8.94758ZM17.5229 8.84659H19.9093V6.84659H17.5229V8.84659ZM18.9383 7.60757C18.8754 7.863 18.7575 8.14799 18.5671 8.46377L20.2799 9.49646C20.5554 9.03951 20.7613 8.56881 20.8803 8.08561L18.9383 7.60757ZM18.5688 8.46097C18.3935 8.74959 18.1607 9.02632 17.8607 9.28933L19.1794 10.7931C19.6181 10.4083 19.9876 9.97768 20.2782 9.49926L18.5688 8.46097ZM17.864 9.28646C17.5877 9.52662 17.2523 9.73044 16.8465 9.89182L17.5857 11.7502C18.1799 11.5139 18.7138 11.1978 19.1761 10.7959L17.864 9.28646ZM16.8465 9.89182C16.4815 10.037 16.0472 10.1193 15.5286 10.1193V12.1193C16.26 12.1193 16.9507 12.0028 17.5857 11.7502L16.8465 9.89182ZM15.5286 10.1193C14.8593 10.1193 14.3388 9.97425 13.927 9.72598L12.8944 11.4388C13.6701 11.9064 14.5616 12.1193 15.5286 12.1193V10.1193ZM13.9288 9.72708C13.5397 9.49136 13.2489 9.14889 13.0559 8.65213L11.1916 9.37628C11.5327 10.2545 12.0999 10.9575 12.8926 11.4377L13.9288 9.72708ZM13.0572 8.65548C12.8751 8.1816 12.8126 7.53345 12.9534 6.65888L10.9788 6.34112C10.8013 7.44382 10.844 8.47181 11.1903 9.37293L13.0572 8.65548ZM12.9525 6.6644C13.0914 5.83063 13.3567 5.18417 13.7167 4.68881L12.099 3.51289C11.5215 4.30731 11.1589 5.26028 10.9797 6.3356L12.9525 6.6644ZM13.7167 4.68881C14.096 4.167 14.5416 3.79247 15.0547 3.54242L14.1786 1.74451C13.3508 2.14787 12.6572 2.74493 12.099 3.51289L13.7167 4.68881ZM15.0547 3.54242C15.5868 3.28311 16.1499 3.15341 16.7559 3.15341V1.15341C15.8505 1.15341 14.9874 1.35041 14.1786 1.74451L15.0547 3.54242ZM16.7559 3.15341C17.2402 3.15341 17.642 3.21736 17.9737 3.32794L18.6062 1.43058C18.0345 1.24002 17.4136 1.15341 16.7559 1.15341V3.15341ZM17.9755 3.32854C18.3105 3.4395 18.5618 3.59106 18.753 3.76994L20.1195 2.30961C19.6914 1.90894 19.1785 1.62016 18.6044 1.42999L17.9755 3.32854ZM18.7599 3.77637C18.9453 3.9466 19.087 4.15873 19.1831 4.43234L21.0701 3.76937C20.8707 3.20207 20.5522 2.70681 20.1126 2.30317L18.7599 3.77637ZM19.1831 4.43234C19.2757 4.69571 19.3214 5.03337 19.2873 5.46716L21.2812 5.62375C21.3324 4.97231 21.273 4.3469 21.0701 3.76937L19.1831 4.43234Z" fill="#10B0EA" mask="url(#path-2-inside-1_9_9)"/>
<line x1="1" y1="6.5" x2="17" y2="6.5" stroke="#10B0EA"/>
</svg>
